<svg xmlns="http://www.w3.org/2000/svg" viewBox="0 0 193.79 16.02">
<defs>
    <style>
        .underline-fill {
            fill: rgb(0, 160, 255);
        }
    </style>
</defs>
    <g id="Layer_2" data-name="Layer 2">
        <g id="Layer_1-2" data-name="Layer 1" class="underline-fill">
            <path 
                d="M1.29,10.29c2.89.46,5.92.07,8.83.07,3.2,0,6.39-.08,9.58-.18,6.33-.19,12.68-.39,19-.51,12.58-.22,25.15-.23,37.71-.12s25.2.37,37.78,1,25.13,1.14,37.73,1.2c7,0,14.06.08,21.15.11l10.27.06c2.92,0,5.93-.53,8.82.05a1.51,1.51,0,0,0,1.61-1.4,1.49,1.49,0,0,0-.59-1.31c-2.84-1.71-6.5-1.5-9.7-1.87C179.75,7,176,6.59,172.24,6.24q-11.12-1.08-22.3-1.56c-14.85-.7-29.72-.7-44.56-.17Q92.79,5,80.27,5.9c-1.93.15-1.41,3.1.5,3a546.58,546.58,0,0,1,87.25,0c4.09.34,8.16.79,12.25,1.19,2,.2,3.92.45,5.88.66,1.75.17,3.74,0,5.3,1l1-2.72c-2.51-.49-5.07-.12-7.6-.05-3.1.08-6.2,0-9.29,0-6.3,0-12.6-.1-18.91-.12-12.51-.06-25-.28-37.48-1C94,6.52,68.72,6.26,43.47,6.62q-10.63.15-21.28.51c-3.43.1-6.86.21-10.3.24-1.74,0-3.47,0-5.21,0a24.84,24.84,0,0,1-5.1-.1C-.32,7-.61,10,1.29,10.29Z" />
            <path fill="var(--text-color)"
                d="M14.37,12.52a21.73,21.73,0,0,1-2.29.52c-1.6.29-1.63,3,.11,3,11.23-.25,22.39-1.4,33.61-2s22.6-1.31,33.91-1.91c22.63-1.2,45.29-1.89,67.91-3.36,6.24-.39,12.48-.79,18.69-1.53,3.15-.36,6.3-.78,9.44-1.19,2.67-.35,5.37-.3,7.95-1.14a1.5,1.5,0,0,0,.73-2,1.45,1.45,0,0,0-.48-.59c-2.51-1.53-5.6-1.1-8.41-1a49.69,49.69,0,0,1-5.17-.24q-3.06-.21-6.13-.36C155.93.29,147.61.2,139.3.11,122.62-.08,105.94,0,89.23.34Q75.13.68,61.1,1.43c-1.93.11-1.4,3.07.51,3C78,3.5,94.35,3.1,110.73,3c16.2-.11,32.41-.13,48.53.48,4.59.17,9.18.44,13.76.77a44.86,44.86,0,0,0,4.78-.1c1.36,0,3.14-.2,4.37.54l.25-2.58c-2.21.73-4.68.55-7,.88-2.75.35-5.49.72-8.23,1-5.54.67-11.1,1.09-16.67,1.47-11.13.76-22.31,1.33-33.47,1.83Q83.54,8.82,50,10.76c-12.5.72-25,2-37.51,2.27l.12,3a22.93,22.93,0,0,0,2.29-.52c1.84-.51,1.34-3.48-.52-3Z" />
        </g>
    </g>
</svg>